<svg xmlns="http://www.w3.org/2000/svg" width="513.065" height="399.104" viewBox="0 0 513.065 399.104">
  <g id="logo" transform="translate(-106.231 -356.016)">
    <path id="Path_142159" data-name="Path 142159" d="M145.023,433.881q-12.2,0-12.2,5.055v61.538h21.539a22.549,22.549,0,0,0,7.474-1.154,13.685,13.685,0,0,0,5.714-3.848,19.949,19.949,0,0,0,3.9-7.2,49.5,49.5,0,0,0,2.034-11.318l7.253.77L178.1,509.045h-71.87v-6.263q9.779,0,9.783-5.064V438.945q0-5.062-9.783-5.064V427.4h38.792Z" transform="translate(0 244.319)" fill="#1a1818"/>
    <path id="Path_142160" data-name="Path 142160" d="M197.881,452.121l-7.691.438q-1.32-16.592-14.064-16.59H151.509v26.589h12.525q6.594,0,7.585-13.295h6.922l-1.65,34.285h-6.7q-1.1-13.626-6.926-13.626H151.509v30.548h20.659q18.463,0,20.438-23.516l7.912.77-2.636,31.317H124.915v-6.263q9.779,0,9.779-5.064V438.941q0-5.062-9.779-5.064V427.4h72.966Z" transform="translate(63.95 244.322)" fill="#1a1818"/>
    <path id="Path_142161" data-name="Path 142161" d="M223.518,499.373q1.1,3.3,9.014,3.295v6.373h-40.22v-6.373h9.673q3.184,0,3.184-2.087a4.395,4.395,0,0,0-.327-1.208l-4.4-11.866H166.708l-4.065,10.986a4.062,4.062,0,0,0-.221,1.318q0,2.859,4.834,2.857h6.815v6.373h-30v-6.484a22.193,22.193,0,0,0,6.811-.765,4.073,4.073,0,0,0,2.747-2.309L181.1,427.4h15.935Zm-53.953-20H197.7L183.74,440.692Z" transform="translate(129.52 244.319)" fill="#1a1818"/>
    <path id="Path_142162" data-name="Path 142162" d="M241.982,455.681l-8.023.769a27.976,27.976,0,0,0-8.461-14.834q-6.263-5.606-16.041-5.6a28,28,0,0,0-12.419,2.525,22.62,22.62,0,0,0-8.461,7.032,30.208,30.208,0,0,0-4.834,10.716,56.135,56.135,0,0,0-1.539,13.569,52.418,52.418,0,0,0,1.924,15.329,25.621,25.621,0,0,0,5.493,10.057,20.557,20.557,0,0,0,8.514,5.546,33.572,33.572,0,0,0,10.991,1.7,28.7,28.7,0,0,0,8.186-1.154,22.478,22.478,0,0,0,6.758-3.184,16.841,16.841,0,0,0,4.56-4.723,10.6,10.6,0,0,0,1.7-5.772v-5.714q0-5.055-9.889-5.055v-6.263h33.626v6.263q-9.891,0-9.889,5.055V510.4h-11.1l-2.419-8.129a21.238,21.238,0,0,1-3.958,3.627,30.447,30.447,0,0,1-5.657,3.184,35.345,35.345,0,0,1-7.364,2.251,46.021,46.021,0,0,1-9.067.827,48.332,48.332,0,0,1-15.055-2.362,34.4,34.4,0,0,1-12.8-7.474,36.269,36.269,0,0,1-8.845-13.078q-3.3-7.961-3.3-19.283a51.352,51.352,0,0,1,3.3-19.341,35.063,35.063,0,0,1,22.251-21.1A51.26,51.26,0,0,1,206.379,427a38.719,38.719,0,0,1,15.219,2.693,27.879,27.879,0,0,1,9.5,6.1l2.747-6.922h8.133Z" transform="translate(199.847 242.956)" fill="#1a1818"/>
    <path id="Path_142163" data-name="Path 142163" d="M225.254,433.881q-12.2,0-12.2,5.055v61.538H234.6a22.5,22.5,0,0,0,7.47-1.154,13.727,13.727,0,0,0,5.719-3.848,19.945,19.945,0,0,0,3.892-7.2,49.714,49.714,0,0,0,2.039-11.318l7.253.77-2.64,31.318h-71.87v-6.263q9.779,0,9.788-5.064V438.945q0-5.062-9.788-5.064V427.4h38.8Z" transform="translate(274.596 244.319)" fill="#1a1818"/>
    <path id="Path_142164" data-name="Path 142164" d="M278.109,452.121l-7.691.438q-1.32-16.592-14.064-16.59H231.737v26.589h12.525q6.594,0,7.585-13.295h6.922l-1.65,34.285h-6.7q-1.1-13.626-6.926-13.626H231.737v30.548H252.4q18.463,0,20.437-23.516l7.912.77-2.636,31.317H205.143v-6.263q9.779,0,9.779-5.064V438.941q0-5.062-9.779-5.064V427.4h72.966Z" transform="translate(338.55 244.322)" fill="#1a1818"/>
    <path id="Path_142165" data-name="Path 142165" d="M143.6,452.725c6.431-.836,12.455-2.9,18.438-5.086A175.372,175.372,0,0,0,185.827,437.1a187.408,187.408,0,0,0,17.182-10.787c6.493-4.52,13.171-8.841,20.212-12.777a79.968,79.968,0,0,1,17.306-7.236,3.035,3.035,0,0,1,.721-.115c-6.179,2.689-10.831,6.8-15.559,10.831-4.9,4.175-9.748,8.4-14.586,12.622a92.221,92.221,0,0,1-33.462,18.284,135.629,135.629,0,0,1-20.526,4.693,57.139,57.139,0,0,1-13.511.111" transform="translate(127.915 171.712)" fill="#412208" fill-rule="evenodd"/>
    <path id="Path_142166" data-name="Path 142166" d="M154.518,462.276c1.49-1.185,3.012-2.348,4.476-3.56a156.907,156.907,0,0,0,15.5-15.236c7.466-8.116,13.98-16.652,20.446-25.2,2.985-3.95,5.869-7.934,8.938-12.1-.133.486-.2.814-.314,1.141a116.515,116.515,0,0,1-12.618,24.418,45.515,45.515,0,0,1-6.227,7.519,167.252,167.252,0,0,1-15.391,13.985,87.968,87.968,0,0,1-14.812,9.031" transform="translate(165.274 171.705)" fill="#412208" fill-rule="evenodd"/>
    <path id="Path_142167" data-name="Path 142167" d="M279.559,477.426c-1.367-1.119-14.794-6.218-18.633-7.457-22.229-7.174-32.812-15.157-51.37-28.168-16.408-11.508-31.158-24.506-42.976-40.057a97.763,97.763,0,0,1-12.764-22.839c-2.207-5.475-4.352-10.968-6.325-16.7.668.761,1.353,1.508,2,2.282,9.491,11.331,19.111,25.484,29.429,36.222a354.193,354.193,0,0,0,31.158,29.628c26.408,22.052,71.467,44.9,72.29,46.35.221.407-14.179,26.576-12.269,46.01,1.088,11.048,6.532,14.321,15.285,17.364,11.185,3.892,22.339,5.17,30.066,4.073,10.274-1.459,21.34-6.006,27.107-6.236a54.509,54.509,0,0,1,22.905,3.914c7.722,3.251,13.715,8.7,21.22,14.9,7.019,5.8,9.633,13.321-1.734,24.612-2.7-1.172,9.19-12.477.19-21.711-10.968-10.946-21.327-16.05-33.529-18.589s-25.661,6.838-32.565,8.514-16.293-.089-29.969-2.769c-23.931-4.679-26.9-12.733-22.525-32.463s13.228-36.368,13-36.881" transform="translate(141.222 21.183)" fill="#412208" fill-rule="evenodd"/>
    <path id="Path_142168" data-name="Path 142168" d="M119.057,356.016c.9.761,1.8,1.521,2.7,2.282,20.778,17.642,47.766,46.107,69.875,62.4,34.343,25.3,64.214,37.487,103.275,56.527,6.992,3.41,14.365,6.179,21.565,9.239,1.172.5,2.357.955,3.529,1.442,5.882,2.446,8.863,6.634,8.965,12.423a73,73,0,0,1-.323,9.014c-1.641,15.4,1.008,30.393,5.365,45.2,1.322,4.5,2.972,8.921,4.467,13.379a2.007,2.007,0,0,1,.044,1.482c-.407-.6-.854-1.177-1.2-1.8-4.263-7.523-8.686-14.984-12.715-22.609-5.086-9.619-7.731-19.947-10.062-30.34-.681-3.043-1.49-6.072-1.977-9.142-.424-2.676-1.809-4.281-4.648-5.312-10.712-3.879-20.734-9.022-30.84-14a578.718,578.718,0,0,1-59.566-33.781c-11.919-7.735-22.454-16.935-33.241-25.873-21.291-17.647-39.553-37.615-56.226-58.84-2.552-3.251-5.263-6.4-7.89-9.6-.491-.6-.938-1.221-1.406-1.827.106-.089.208-.177.314-.261" transform="translate(42.825 0)" fill="#412208" fill-rule="evenodd"/>
    <path id="Path_142169" data-name="Path 142169" d="M120.21,370.771c10.522,6.594,23.5,18.624,65.6,39.791s90.1,38.208,92.979,39.787c-1.375-.159-2.742-.389-4.122-.482-14.4-.933-28.217-4.188-41.844-8.359a260,260,0,0,1-43.431-17.156c-20.07-10.362-38.907-22.282-55.13-37.284a91.608,91.608,0,0,1-14.055-16.3" transform="translate(47.847 50.503)" fill="#412208" fill-rule="evenodd"/>
    <path id="Path_142170" data-name="Path 142170" d="M127.49,384.418c.168-.075.358-.239.5-.208,45.236,18.969,84.452,26,125.884,32.113-3.826.066-6.983.146-10.141.177-10.115.1-20.261.681-30.34.177-21.694-1.092-42.3-6.205-61.038-16.254-8.66-4.648-16.568-10.442-24.812-15.723-.057-.04-.035-.186-.053-.283" transform="translate(72.764 96.488)" fill="#412208" fill-rule="evenodd"/>
    <path id="Path_142171" data-name="Path 142171" d="M128.419,392.422c.155-.1.314-.283.46-.274,47.912,12.534,87.862,14.1,129.838,14.449-3.768.593-6.877,1.1-9.987,1.566-9.982,1.49-19.911,3.458-29.96,4.343-21.627,1.9-42.856-.323-63.073-7.682-9.345-3.4-18.138-8.04-27.178-12.132-.066-.031-.071-.177-.1-.27" transform="translate(75.944 123.667)" fill="#412208" fill-rule="evenodd"/>
    <path id="Path_142172" data-name="Path 142172" d="M276.382,411.746c-15.555-.849-46.257-3.167-66.991,7.2s-26.837,23.706-30.928,28.5a2.037,2.037,0,0,1-1.53.69c-.681,0,1.362-3.587,2.141-5.347a54.88,54.88,0,0,1,30.751-29.5c14.374-5.687,49.15-5.993,63.059-2.738.832.195,1.65.451,2.468.694a10.767,10.767,0,0,1,1.03.491" transform="translate(241.522 179.564)" fill="#412208" fill-rule="evenodd"/>
    <path id="Path_142173" data-name="Path 142173" d="M136.175,400.5c35.948,8.81,89.675,3.764,99.4,4.542-14,3.3-55.483,11.729-79.945,5.807-5.436-1.632-14.617-7.134-19.456-10.349" transform="translate(102.491 152.24)" fill="#412208" fill-rule="evenodd"/>
    <path id="Path_142174" data-name="Path 142174" d="M146.408,430c.646-.42,1.2-.8,1.778-1.163,6.731-4.166,13.534-8.244,20.177-12.525a125.813,125.813,0,0,1,23.454-11.5c2.667-1.017,5.338-2.012,8.739-3.291-2.322,2-4.126,3.543-5.909,5.1-5.626,4.927-11.106,9.964-17.51,14.139-9,5.865-19.195,8.492-30.022,9.6-.155.013-.332-.164-.708-.363" transform="translate(137.516 155.755)" fill="#412208" fill-rule="evenodd"/>
  </g>
</svg>
